HIERARCHY
ROOT Hips
{
	OFFSET	0.00	0.00	0.00
	CHANNELS 6 Xposition Yposition Zposition Zrotation Xrotation Yrotation
	JOINT LeftUpLeg
	{
		OFFSET	 0.126116	-0.014019	-0.065224
		CHANNELS 3 Zrotation Xrotation Yrotation
		JOINT LeftLeg
		{
			OFFSET	 0.000000	 0.000000	 0.569914
			CHANNELS 3 Zrotation Xrotation Yrotation
			JOINT LeftFoot
			{
				OFFSET	 0.000000	 0.000000	 0.544423
				CHANNELS 3 Zrotation Xrotation Yrotation
				JOINT LeftToeBase
				{
					OFFSET	 0.000000	 0.000000	 0.207117
					CHANNELS 3 Zrotation Xrotation Yrotation
					End Site
					{
						OFFSET	 0.000000	 0.000000	 0.207117
					}
				}
			}
		}
	}
	JOINT RightUpLeg
	{
		OFFSET	-0.124023	-0.008373	-0.065224
		CHANNELS 3 Zrotation Xrotation Yrotation
		JOINT RightLeg
		{
			OFFSET	 0.000000	 0.000000	 0.570047
			CHANNELS 3 Zrotation Xrotation Yrotation
			JOINT RightFoot
			{
				OFFSET	 0.000000	 0.000000	 0.544354
				CHANNELS 3 Zrotation Xrotation Yrotation
				JOINT RightToeBase
				{
					OFFSET	 0.000000	 0.000000	 0.207540
					CHANNELS 3 Zrotation Xrotation Yrotation
					End Site
					{
						OFFSET	 0.000000	 0.000000	 0.207540
					}
				}
			}
		}
	}
	JOINT Spine
	{
		OFFSET	 0.000184	-0.007763	 0.117403
		CHANNELS 3 Zrotation Xrotation Yrotation
		JOINT Spine1
		{
			OFFSET	 0.000000	 0.000000	 0.137269
			CHANNELS 3 Zrotation Xrotation Yrotation
			JOINT Spine2
			{
				OFFSET	 0.000000	 0.000000	 0.156879
				CHANNELS 3 Zrotation Xrotation Yrotation
				JOINT LeftShoulder
				{
					OFFSET	 0.080501	-0.002496	 0.160144
					CHANNELS 3 Zrotation Xrotation Yrotation
					JOINT LeftArm
					{
						OFFSET	 0.000000	 0.000000	 0.164363
						CHANNELS 3 Zrotation Xrotation Yrotation
						JOINT LeftForeArm
						{
							OFFSET	 0.000000	 0.000000	 0.364576
							CHANNELS 3 Zrotation Xrotation Yrotation
							JOINT LeftHand
							{
								OFFSET	 0.000000	 0.000000	 0.360812
								CHANNELS 3 Zrotation Xrotation Yrotation
								JOINT LeftHandIndex1
								{
									OFFSET	 0.000000	 0.000000	 0.086006
									CHANNELS 3 Zrotation Xrotation Yrotation
									JOINT LeftHandIndex2
									{
										OFFSET	 0.000000	 0.000000	 0.047236
										CHANNELS 3 Zrotation Xrotation Yrotation
										JOINT LeftHandIndex3
										{
											OFFSET	-0.004284	-0.000551	 0.038166
											CHANNELS 3 Zrotation Xrotation Yrotation
											End Site
											{
												OFFSET	-0.004284	-0.000551	 0.038166
											}
										}
									}
								}
							}
						}
					}
				}
				JOINT Neck
				{
					OFFSET	 0.000000	 0.000000	 0.176489
					CHANNELS 3 Zrotation Xrotation Yrotation
					JOINT Head
					{
						OFFSET	 0.000000	-0.001747	 0.077940
						CHANNELS 3 Zrotation Xrotation Yrotation
						End Site
						{
							OFFSET	 0.000000	-0.001747	 0.077940
						}
					}
				}
				JOINT RightShoulder
				{
					OFFSET	-0.080363	 0.000306	 0.159706
					CHANNELS 3 Zrotation Xrotation Yrotation
					JOINT RightArm
					{
						OFFSET	 0.000000	 0.000000	 0.164196
						CHANNELS 3 Zrotation Xrotation Yrotation
						JOINT RightForeArm
						{
							OFFSET	 0.000000	 0.000000	 0.365611
							CHANNELS 3 Zrotation Xrotation Yrotation
							JOINT RightHand
							{
								OFFSET	 0.000000	 0.000000	 0.360648
								CHANNELS 3 Zrotation Xrotation Yrotation
								JOINT RightHandIndex1
								{
									OFFSET	 0.000000	 0.000000	 0.069977
									CHANNELS 3 Zrotation Xrotation Yrotation
									JOINT RightHandIndex2
									{
										OFFSET	 0.000000	 0.000000	 0.052305
										CHANNELS 3 Zrotation Xrotation Yrotation
										JOINT RightHandIndex3
										{
											OFFSET	 0.009002	-0.000782	 0.042196
											CHANNELS 3 Zrotation Xrotation Yrotation
											End Site
											{
												OFFSET	 0.009002	-0.000782	 0.042196
											}
										}
									}
								}
							}
						}
					}
				}
			}
		}
	}
}
MOTION
Frames:    12
Frame Time: 0.03333334
-0.000581	 0.016701	 1.314051	 0.002451	-0.001026	-0.186250	 12.054050	-1.898550	 176.988900	 1.485994	-10.883490	-0.633764	-6.599615	 61.930330	 0.842841	-2.385833	 28.452760	 0.000004	-12.108700	-2.818935	-176.734800	-1.457457	-12.154240	 0.696863	 6.505072	 62.483750	-0.860580	 2.384658	 28.388730	 0.000004	 39.781800	 2.769497	-0.106109	 2.146138	 3.586701	 0.849259	-6.459406	-4.383146	-1.399722	-91.776220	 78.527470	-180.000000	 47.244380	 33.537790	-53.361090	-26.779590	 4.676698	-13.071870	-30.464590	-14.231130	-4.539211	-2.635965	 4.993658	 6.788941	-5.165319	 0.784187	 3.516649	-5.225038	 0.466231	 0.424329	-0.000002	-3.783157	-0.089647	-6.282864	 4.683671	 0.257184	 89.782040	 78.203870	-180.000000	 0.613140	 12.460870	 108.967000	-15.697680	 4.358930	 13.201360	 2.543595	-14.813020	-6.162077	 6.112037	 4.509576	-0.364401	 4.968462	 1.518543	-9.347576	 5.168945	 0.703820	 2.021906
-0.000560	 0.017749	 1.315431	 0.002034	-0.000616	-0.176107	 12.285560	-1.939159	 176.969700	 1.485742	-10.906040	-0.635109	-6.574713	 61.728180	 0.824993	-2.385833	 28.452760	 0.000004	-12.342970	-2.878793	-176.743000	-1.457752	-12.130350	 0.695450	 6.443344	 62.215390	-0.804688	 2.384658	 28.388730	 0.000004	 40.245200	 2.770598	-0.096191	 2.033788	 3.574682	 0.805980	-6.119294	-4.387510	-1.326486	-91.776140	 78.527450	 180.000000	 47.269620	 33.565040	-53.414110	-22.991940	 3.030993	-10.616810	-26.306880	-24.208430	-2.879872	-2.635965	 4.993658	 6.788941	-5.165319	 0.784187	 3.516649	-5.225038	 0.466231	 0.424329	-0.000002	-3.783157	-0.089647	-5.950737	 4.734951	 0.246232	 89.782140	 78.203870	 180.000000	 0.530858	 12.660970	 108.945100	-19.652350	 2.705355	 10.725020	-3.582391	-23.987950	-8.574209	 6.112037	 4.509576	-0.364401	 4.968462	 1.518543	-9.347576	 5.168945	 0.703820	 2.021906
-0.000492	 0.019276	 1.315656	 0.002635	 0.001443	-0.159794	 12.271110	-1.969835	 176.959700	 1.485583	-10.920520	-0.635973	-6.579934	 61.685930	 0.817005	-2.385833	 28.452760	 0.000004	-12.346380	-2.938635	-176.774200	-1.458273	-12.088470	 0.692977	 6.386562	 62.083660	-0.744439	 2.384658	 28.388730	 0.000004	 38.103450	 2.767315	-0.081794	 1.863498	 3.569073	 0.742449	-5.606300	-4.408083	-1.218017	-91.776150	 78.527430	 180.000000	 47.378080	 33.678380	-53.622180	-18.953380	 1.702780	-7.914525	-21.694680	-32.519200	 0.201158	-2.635965	 4.993658	 6.788941	-5.165319	 0.784187	 3.516649	-5.225038	 0.466231	 0.424329	-0.000002	-3.783157	-0.089647	-5.449489	 4.800496	 0.228582	 89.782130	 78.203900	 180.000000	 0.478211	 12.962970	 108.904100	-23.866370	 1.367429	 7.999130	-10.033030	-31.340230	-12.526580	 6.112037	 4.509576	-0.364401	 4.968462	 1.518543	-9.347576	 5.168945	 0.703820	 2.021906
-0.000447	 0.020808	 1.316255	 0.003336	 0.003831	-0.138849	 12.270480	-2.005345	 176.944600	 1.485343	-10.941680	-0.637236	-6.569543	 61.648780	 0.807444	-2.385833	 28.452760	 0.000004	-12.363440	-2.989781	-176.808000	-1.458952	-12.033060	 0.689705	 6.314675	 61.948360	-0.681610	 2.384658	 28.388730	 0.000004	 33.509710	 2.761888	-0.062235	 1.639117	 3.567755	 0.658146	-4.930263	-4.439455	-1.074900	-91.776170	 78.527450	 180.000000	 47.535060	 33.847270	-53.926360	-14.569370	 0.734568	-4.907624	-16.461700	-38.452790	 4.358816	-2.635965	 4.993658	 6.788941	-5.165319	 0.784187	 3.516649	-5.225038	 0.466231	 0.424329	-0.000002	-3.783157	-0.089647	-4.789383	 4.875109	 0.203983	 89.782110	 78.203900	 180.000000	-1.724592	 12.897750	 108.527600	-28.350850	 0.393759	 4.966222	-17.333420	-35.962730	-17.211750	 6.112037	 4.509576	-0.364401	 4.968462	 1.518543	-9.347576	 5.168945	 0.703820	 2.021906
-0.000439	 0.022431	 1.317388	 0.003940	 0.006154	-0.113342	 12.269490	-2.048078	 176.926100	 1.484952	-10.975720	-0.639268	-6.560526	 61.617810	 0.799424	-2.385833	 28.452760	 0.000004	-12.367790	-3.034196	-176.846300	-1.459783	-11.965880	 0.685739	 6.257352	 61.805640	-0.620317	 2.384658	 28.388730	 0.000004	 26.405380	 2.755249	-0.037002	 1.357197	 3.569450	 0.551296	-4.080570	-4.477435	-0.894049	-91.776210	 78.527450	-180.000000	 47.726060	 34.065530	-54.303050	-9.771612	 0.226504	-1.574114	-11.100270	-41.220790	 8.626678	-2.635965	 4.993658	 6.788941	-5.165319	 0.784187	 3.516649	-5.225038	 0.466231	 0.424329	-0.000002	-3.783157	-0.089647	-3.960819	 4.953756	 0.171385	 89.782030	 78.203920	-180.000000	-6.751948	 13.047320	 107.716500	-32.614070	-0.113842	 1.601336	-24.133330	-37.635530	-21.379570	 6.112037	 4.509576	-0.364401	 4.968462	 1.518543	-9.347576	 5.168945	 0.703820	 2.021906
-0.000398	 0.024013	 1.318478	 0.004247	 0.007879	-0.084862	 12.268230	-2.098752	 176.905600	 1.484371	-11.027020	-0.642331	-6.553686	 61.596440	 0.793764	-2.385833	 28.452760	 0.000004	-12.372160	-3.073892	-176.886800	-1.460660	-11.893510	 0.681470	 6.200641	 61.661570	-0.559624	 2.384658	 28.388730	 0.000004	 17.247140	 2.748767	-0.006979	 1.030663	 3.572841	 0.426509	-3.095997	-4.515188	-0.683053	-91.776150	 78.527470	 180.000000	 47.951040	 34.341480	-54.759040	-4.813077	 0.016684	-2.815309	-6.960423	-40.246770	 11.220500	-2.635965	 4.993658	 6.788941	-5.165319	 0.784187	 3.516649	-5.225038	 0.466231	 0.424329	-0.000002	-3.783157	-0.089647	-3.002182	 5.025527	 0.131764	 89.782100	 78.203870	 180.000000	-13.047670	 14.069930	 105.838600	-36.120110	-0.313157	 2.821925	-27.910260	-36.432900	-23.592220	 6.112037	 4.509576	-0.364401	 4.968462	 1.518543	-9.347576	 5.168945	 0.703820	 2.021906
-0.000311	 0.025806	 1.319511	 0.003534	 0.009192	-0.047876	 12.267210	-2.166488	 176.879400	 1.483458	-11.106290	-0.647066	-6.547834	 61.583140	 0.789424	-2.385833	 28.452760	 0.000004	-12.376690	-3.111472	-176.936500	-1.461812	-11.798190	 0.675852	 6.135134	 61.490580	-0.489394	 2.384658	 28.388730	 0.000004	 4.899212	 2.744106	 0.006350	 0.610867	 3.574134	 0.309308	-1.834542	-4.548677	-0.431008	-91.776180	 78.527450	 180.000000	 48.234570	 34.697530	-55.358780	 0.874763	-0.900526	-6.787372	-4.579217	-34.766290	 10.787800	-2.635965	 4.993658	 6.788941	-5.165319	 0.784187	 3.516649	-5.225038	 0.466231	 0.424329	-0.000002	-3.783157	-0.089647	-1.774262	 5.088322	 0.078828	 89.782100	 78.203890	 180.000000	-21.367520	 16.629440	 102.530100	-39.343690	-1.211211	 6.769108	-27.610440	-31.742470	-22.683270	 6.112037	 4.509576	-0.364401	 4.968462	 1.518543	-9.347576	 5.168945	 0.703820	 2.021906
-0.000219	 0.027430	 1.319960	 0.000801	 0.011269	-0.003708	 12.267500	-2.237652	 176.846000	 1.482458	-11.192990	-0.652248	-6.545118	 61.579770	 0.788368	-2.385833	 28.452760	 0.000004	-12.379680	-3.133709	-176.989900	-1.463085	-11.692460	 0.669619	 6.076503	 61.327230	-0.426598	 2.384658	 28.388730	 0.000004	-6.856141	 2.739326	 0.055424	 0.215339	 3.574322	 0.105510	-0.629578	-4.566983	-0.146972	-91.776200	 78.527470	-180.000000	 48.484280	 35.026310	-55.957900	 5.732410	-2.338692	-10.097830	-4.173697	-26.657160	 7.606036	-2.635965	 4.993658	 6.788941	-5.165319	 0.784187	 3.516649	-5.225038	 0.466231	 0.424329	-0.000002	-3.783157	-0.089647	-0.605903	 5.117977	 0.027065	 89.782130	 78.203870	 180.000000	-29.171870	 20.007780	 99.000750	-41.626850	-2.627923	 10.068510	-23.972550	-25.053590	-19.017020	 6.112037	 4.509576	-0.364401	 4.968462	 1.518543	-9.347576	 5.168945	 0.703820	 2.021906
-0.000107	 0.028954	 1.320518	-0.001113	 0.011091	 0.031785	 12.267000	-2.308910	 176.821800	 1.481328	-11.289730	-0.658032	-6.543070	 61.582860	 0.787907	-2.385833	 28.452760	 0.000004	-12.382680	-3.161938	-177.035700	-1.464128	-11.604300	 0.664430	 6.020303	 61.175630	-0.366209	 2.384658	 28.388730	 0.000004	-18.038710	 2.737185	 0.108724	-0.181555	 3.576494	-0.086966	 0.575791	-4.570873	 0.132296	-91.776140	 78.527430	 180.000000	 48.746440	 35.362750	-56.591270	 10.114690	-4.177316	-12.983340	-4.524377	-16.832370	 3.034194	-2.635965	 4.993658	 6.788941	-5.165319	 0.784187	 3.516649	-5.225038	 0.466231	 0.424329	-0.000002	-3.783157	-0.089647	 0.562813	 5.118368	-0.025170	 89.782100	 78.203870	 180.000000	-36.989460	 24.266130	 94.353890	-43.388130	-4.446139	 12.949140	-19.106210	-16.864990	-13.790960	 6.112037	 4.509576	-0.364401	 4.968462	 1.518543	-9.347576	 5.168945	 0.703820	 2.021906
 0.000023	 0.030420	 1.321139	-0.003072	 0.008067	 0.060222	 12.266220	-2.386204	 176.805500	 1.479931	-11.408910	-0.665166	-6.543286	 61.598040	 0.789873	-2.385833	 28.452760	 0.000004	-12.384810	-3.199647	-177.075900	-1.464897	-11.539610	 0.660624	 5.966753	 61.036680	-0.308647	 2.384658	 28.388730	 0.000004	-27.769390	 2.737097	 0.164101	-0.570426	 3.582037	-0.268259	 1.755586	-4.561606	 0.402256	-91.776160	 78.527470	 180.000000	 49.007350	 35.692870	-57.223810	 13.960230	-6.234904	-15.401460	-5.192935	-6.636760	-1.748579	-2.635965	 4.993658	 6.788941	-5.165319	 0.784187	 3.516649	-5.225038	 0.466231	 0.424329	-0.000002	-3.783157	-0.089647	 1.707273	 5.090305	-0.075908	 89.782110	 78.203900	 180.000000	-42.693280	 28.204980	 83.387020	-43.147480	-10.897330	 23.711690	-14.516390	-8.219923	-8.138114	 6.112037	 4.509576	-0.364401	 4.968462	 1.518543	-9.347576	 5.168945	 0.703820	 2.021906
 0.000106	 0.031940	 1.321661	-0.003242	 0.007497	 0.088343	 12.264610	-2.448395	 176.787500	 1.478969	-11.489450	-0.669990	-6.538805	 61.591390	 0.786786	-2.385833	 28.452760	 0.000004	-12.389210	-3.234179	-177.116000	-1.465841	-11.458870	 0.655875	 5.910318	 60.886630	-0.247829	 2.384658	 28.388730	 0.000004	-35.128890	 2.738222	 0.172661	-0.949995	 3.580092	-0.356550	 2.892055	-4.537890	 0.621781	-91.776200	 78.527450	 180.000000	 49.266460	 36.014130	-57.849230	 17.222110	-8.320701	-17.340190	-6.413873	 2.376036	-5.652437	-2.635965	 4.993658	 6.788941	-5.165319	 0.784187	 3.516649	-5.225038	 0.466231	 0.424329	-0.000002	-3.783157	-0.089647	 2.813704	 5.036369	-0.123782	 89.782140	 78.203900	 180.000000	-47.845150	 31.783420	 72.906280	-41.358720	-15.605030	 31.309970	-9.850565	-0.757878	-3.091754	 6.112037	 4.509576	-0.364401	 4.968462	 1.518543	-9.347576	 5.168945	 0.703820	 2.021906
 0.000179	 0.033528	 1.321900	-0.002603	 0.006188	 0.110259	 12.262530	-2.505838	 176.774800	 1.478074	-11.563840	-0.674448	-6.533659	 61.581100	 0.782966	-2.385833	 28.452760	 0.000004	-12.393790	-3.276880	-177.151300	-1.466607	-11.392750	 0.651989	 5.855269	 60.743270	-0.188403	 2.384658	 28.388730	 0.000004	-38.825660	 2.740489	 0.211816	-1.293444	 3.578733	-0.485719	 3.925606	-4.505576	 0.843106	-91.776150	 78.527450	 180.000000	 49.503860	 36.305070	-58.427340	 19.693190	-10.115500	-18.725650	-8.907365	 7.988378	-7.464570	-2.635965	 4.993658	 6.788941	-5.165319	 0.784187	 3.516649	-5.225038	 0.466231	 0.424329	-0.000002	-3.783157	-0.089647	 3.819490	 4.964414	-0.165649	 89.782130	 78.203900	 179.999900	-52.946670	 35.060470	 65.651480	-39.731940	-16.964200	 32.834680	-4.744588	 3.478460	 0.461711	 6.112037	 4.509576	-0.364401	 4.968462	 1.518543	-9.347576	 5.168945	 0.703820	 2.021906
